<svg width="25" height="25" viewBox="0 0 25 25" fill="none" xmlns="http://www.w3.org/2000/svg">
<path d="M7.34319 0.235352H17.6373C21.5589 0.235352 24.7452 3.42163 24.7452 7.34319V17.6373C24.7452 19.5224 23.9963 21.3303 22.6633 22.6633C21.3303 23.9963 19.5224 24.7452 17.6373 24.7452H7.34319C3.42163 24.7452 0.235352 21.5589 0.235352 17.6373V7.34319C0.235352 5.45808 0.984212 3.65017 2.31719 2.31719C3.65017 0.984212 5.45808 0.235352 7.34319 0.235352ZM7.0981 2.68633C5.92802 2.68633 4.80587 3.15114 3.97851 3.97851C3.15114 4.80587 2.68633 5.92802 2.68633 7.0981V17.8824C2.68633 20.3211 4.65937 22.2942 7.0981 22.2942H17.8824C19.0525 22.2942 20.1746 21.8294 21.002 21.002C21.8294 20.1746 22.2942 19.0525 22.2942 17.8824V7.0981C22.2942 4.65937 20.3211 2.68633 17.8824 2.68633H7.0981ZM18.9241 4.52457C19.3304 4.52457 19.72 4.68596 20.0073 4.97324C20.2945 5.26052 20.4559 5.65015 20.4559 6.05643C20.4559 6.4627 20.2945 6.85234 20.0073 7.13962C19.72 7.4269 19.3304 7.58829 18.9241 7.58829C18.5178 7.58829 18.1282 7.4269 17.8409 7.13962C17.5536 6.85234 17.3922 6.4627 17.3922 6.05643C17.3922 5.65015 17.5536 5.26052 17.8409 4.97324C18.1282 4.68596 18.5178 4.52457 18.9241 4.52457ZM12.4903 6.3628C14.1154 6.3628 15.6739 7.00837 16.823 8.15749C17.9721 9.30661 18.6177 10.8652 18.6177 12.4903C18.6177 14.1154 17.9721 15.6739 16.823 16.823C15.6739 17.9721 14.1154 18.6177 12.4903 18.6177C10.8652 18.6177 9.30661 17.9721 8.15749 16.823C7.00837 15.6739 6.3628 14.1154 6.3628 12.4903C6.3628 10.8652 7.00837 9.30661 8.15749 8.15749C9.30661 7.00837 10.8652 6.3628 12.4903 6.3628ZM12.4903 8.81378C11.5152 8.81378 10.5801 9.20112 9.8906 9.8906C9.20112 10.5801 8.81378 11.5152 8.81378 12.4903C8.81378 13.4653 9.20112 14.4004 9.8906 15.0899C10.5801 15.7794 11.5152 16.1667 12.4903 16.1667C13.4653 16.1667 14.4004 15.7794 15.0899 15.0899C15.7794 14.4004 16.1667 13.4653 16.1667 12.4903C16.1667 11.5152 15.7794 10.5801 15.0899 9.8906C14.4004 9.20112 13.4653 8.81378 12.4903 8.81378Z" fill="#FFF"/>
</svg>
