<svg width="27" height="22" viewBox="0 0 27 22" fill="none" xmlns="http://www.w3.org/2000/svg">
<path d="M26.3091 3.13702C25.3655 3.56594 24.3483 3.8478 23.2944 3.9826C24.3729 3.33309 25.2062 2.30368 25.5983 1.06594C24.5812 1.67868 23.4537 2.1076 22.265 2.3527C21.2969 1.29878 19.9366 0.686035 18.3925 0.686035C15.5126 0.686035 13.1596 3.03898 13.1596 5.94339C13.1596 6.36005 13.2086 6.76447 13.2944 7.14437C8.93168 6.92378 5.04688 4.82819 2.46109 1.65417C2.00766 2.42623 1.75031 3.33309 1.75031 4.28898C1.75031 6.11496 2.66942 7.7326 4.09099 8.65172C3.22089 8.65172 2.41207 8.40662 1.70129 8.03898V8.07574C1.70129 10.6248 3.51501 12.7571 5.91697 13.2351C5.14581 13.4461 4.33621 13.4755 3.55178 13.3208C3.88463 14.3655 4.5365 15.2797 5.41577 15.9347C6.29503 16.5898 7.35747 16.9528 8.45374 16.9728C6.59544 18.4439 4.29197 19.2391 1.92188 19.2277C1.50521 19.2277 1.08854 19.2032 0.671875 19.1542C3.00031 20.6493 5.76991 21.5194 8.7356 21.5194C18.3925 21.5194 23.6988 13.5047 23.6988 6.55613C23.6988 6.32329 23.6988 6.1027 23.6866 5.86986C24.716 5.13456 25.5983 4.20319 26.3091 3.13702Z" fill="#FFF"/>
</svg>
